<svg height="815pt" viewBox="0 0 1225 815" width="1225pt" xmlns="http://www.w3.org/2000/svg"><g fill="#3a241b"><path d="m776.54 0h11.93c8.05.56 16.11 1.44 23.95 3.41 4.44 1.23 9.11.74 13.62 1.54 17.47 2.54 34.06 10.94 46.27 23.71 11.59 11.63 19.11 26.99 21.97 43.11 10.4 4.67 20.36 10.45 29.07 17.86 26.16 21.61 41.96 55.36 41.17 89.35.24 35.28-17.49 69.84-45.65 90.94-3.13 21.38-11.81 41.89-24.86 59.11-19.53 26.13-49.76 44.63-82.5 47.58-7.69 8.04-16.26 15.24-25.5 21.43-1.87 1.47-4.67 1.78-6.65.39-2.92-1.93-2.98-7.02.16-8.76 29.04-19.59 51.53-49.23 61.19-83.02 7.24-25.17 6.66-52.38-.85-77.41-8.75-29.35-27.41-55.54-52.13-73.59 9.89 21.3 13.04 45.06 12.77 68.36.76 34.75-9.76 69.55-29.26 98.28-17.28 25.58-41.57 46.4-69.56 59.43-3.38 1.91-8.13-.78-7.85-4.74-.17-3.47 3.31-4.92 5.93-6.13 43.82-21.09 76.8-63.18 86.75-110.79 4.04-18.03 4.12-36.67 2.81-55.02-1.33-18-5.92-35.9-14.73-51.75-5.59 3.74-3.42 11.35-1.59 16.6 3.79 9.9 6.96 20.47 5.77 31.2-.73 7.49-4.17 14.79-9.98 19.65-6.2 5.53-14.94 8.32-19.26 15.82-5.04 8.95-4.63 19.63-7.74 29.22-3.53 10.74-9.49 20.6-16.7 29.26-18.61 22.37-48.07 35.07-77.09 33.6-4.25-.07-6.32-6.07-3.22-8.86 1.29-1.49 3.33-1.64 5.18-1.55 19.23.5 38.56-5.77 53.85-17.45 12.1-9.19 21.55-21.79 27.15-35.89 4.09-11.42 3.22-24.49 10.19-34.87 4.64-7.74 13.13-11.54 20.08-16.77 6.13-4.61 7.96-12.85 7.12-20.14-.61-8.08-4.02-15.51-6.41-23.14-2.05-7.06-2.49-15.55 2.42-21.57 4.5-5.69 12.17-6.72 18.84-8.04 5.2-.74 8.62-5.48 10.1-10.18 3.09-9.2.82-19.14-2.51-27.93-3.09-7.52-7.4-15.25-14.7-19.37-7.26-3.97-16.19-1.01-22.19 3.92-7.22 5.43-9.05 15.39-16.66 20.45-7.99 5.46-18.15 3.93-27.27 4.32-15.67 1.19-30.86 8.32-41.65 19.77-4.16 4.5-7.65 9.66-12.55 13.41-4.3 3.4-9.43 5.48-14.42 7.63-9.19 3.99-17.92 9.04-25.94 15.05-6.8 5.18-14.17 11.3-15.87 20.14 7.45.14 13.75-4.37 20.69-6.34 5.7-1.58 11.5-5.09 17.56-2.87 4.22 1.02 6.97 6.2 4.56 10.07-3.91 6.03-10.96 8.87-15.84 13.97-1.88 1.74-3.53 4.53-6.49 4.14-3.77.13-6.4-4.75-4.27-7.86 1.8-2.89 4.56-4.99 7.02-7.28-4.84 1.89-9.58 4.02-14.52 5.65 3.1 8.55.52 17.46-.69 26.08 9.05 2.05 18.31.03 27.45.11 10.32.12 20.65 1.31 30.65 3.9 3.77.92 7.47 2.36 11.38 2.58 7.04-.55 11.75-6.68 17.93-9.22 4.71-1.23 8.27 4.99 5.1 8.52-3.67 3.06-7.72 5.69-11.86 8.08-6 3.48-13.3 3.88-19.82 1.72-14.94-4.58-30.73-5.95-46.26-4.46-1.15 6.84-1.29 14.58 3.03 20.43 4.88 6.41 13.17 9.06 20.92 9.71 3.97.45 7.87-.77 11.82-.69 4.59 1.05 5.22 8.14.85 9.92-5.54 1.7-11.5 1.62-17.2.88-10.32-1.59-20.95-6.45-26.4-15.78-4.49-7.27-4.66-16.14-3.81-24.39-3.63-.47-7.55-.91-10.41-3.43-3.78-3.09-4.41-8.53-3.43-13.04 1.21-5.86 3.05-12.21.41-17.96-1.25-3.29-5.28-4.05-6.95-7.02-2.4-3.68-2.07-8.45-.48-12.38 3.04-7.92 9.09-14.24 15.67-19.39 7.96-6.37 16.68-11.77 25.85-16.21 6.5-3.21 13.72-5.23 19.23-10.16-1.21-34.16 11.86-68.49 35.34-93.31 23.05-24.91 56.09-40.03 89.97-41.54m-7.61 11.24c-20.58 5.25-39.38 17.7-51.68 35.1-11.58 16.08-17.43 36.07-16.75 55.85 8.4-1.95 17.06-.55 25.53-1.73 3.07-.29 5.73-2 7.72-4.29-2.81-20.01 2.26-41.02 13.94-57.52 8.6-12.4 20.81-22.11 34.6-28.15-4.47-.05-8.93.19-13.36.74m-10.69 31.02c-8.81 11.3-13.93 25.37-14.63 39.66 6.57-7.05 15.92-11.35 25.58-11.51 11.5-19.3 32.34-32.66 54.73-34.78 18.07-1.97 36.71 3.24 51.26 14.1-7.77-13.27-19.93-23.96-34.18-29.78-11.96-4.98-25.3-6.48-38.08-4.41-17.56 2.8-33.91 12.57-44.68 26.72m-96.31 80.35c8.02-7.84 17.71-13.93 28.3-17.66-1.99-27.35 8.1-55.17 26.84-75.13-31.61 19.98-52.65 55.48-55.14 92.79m118.21-49.63c3.39 1.8 6.52 4.07 9.15 6.88 26.09-16.13 58.62-20.93 88.34-13.58-12.89-14.25-32.53-22.19-51.72-20.27-18.28 1.56-35.52 11.78-45.77 26.97m15.67 15.33c2.21 3.99 4.15 8.13 5.68 12.44 21.75-5.67 45.26-4.67 66.31 3.29 20.13 7.58 37.84 21.36 50.21 38.95 20.61 28.76 25.26 67.8 12.65 100.78 14.7-17.76 23.12-40.7 23.35-63.76.61-20.59-5.33-41.26-16.52-58.53-18.43-29.09-52.03-47.98-86.54-47.99-19.29-.4-38.61 4.9-55.14 14.82m8.43 22.81c1.1 4.84 1.25 9.84.79 14.77 24.34 2.16 47.9 11.76 67 26.98 27.32 21.51 45.06 54.65 47.68 89.34 14.5-33.46 7.26-74.77-17.19-101.71-23.7-27.32-63.47-39.46-98.28-29.38m-1.82 25.03c-1.87 4.29-4.72 8.07-8.37 11 20.02 14.66 36.43 34.25 47.2 56.61 16.35 33.64 19.74 73.52 8.57 109.28-5.77 18.62-15.25 36.02-27.37 51.25 19.15-4.26 36.91-14.23 50.87-27.97 23.91-22.86 37.85-56.11 36.15-89.27-1.04-23.16-9.24-45.92-23.19-64.44-19.66-26.48-50.97-43.86-83.86-46.46z"/><path d="m573.57 73.84c20.64-2.02 41.82 1.42 60.69 10.05 3.61 1.44 4.06 7.1.74 9.11-1.84 1.31-4.24 1.03-6.15.06-20.17-9.04-43.18-11.54-64.84-7.18-23.22 4.55-44.76 17.07-60.32 34.89-16.29 18.48-25.97 42.64-26.79 67.27-.34 2.68.52 5.99-1.77 8.01-2.93 2.7-8.38.96-8.8-3.13-.28-22.83 6.32-45.71 18.69-64.9 19.18-30.34 52.78-50.98 88.55-54.18z"/><path d="m759.45 92.31c4.34-2.84 10.49-2.43 14.48.88 4.79 3.68 6.87 9.62 9.04 15.03 1.29 3.85 2.95 7.69 3.28 11.78-.31 5.1-8.07 6.51-10 1.74-1.78-5.69-3.46-11.47-6.2-16.79-1.04-1.87-2.42-3.97-4.77-4.13-2.84 2.66-3.23 6.58-2.33 10.19.44 5.13-7.34 7.23-9.71 2.72-3.13-7.35-.56-16.96 6.21-21.42z"/><path d="m687.11 130.24c7.76-5.39 17.77-6.42 26.92-5.05 6.26 1.03 12.86 3.96 15.89 9.87 1.59 2.87.7 6.94-2.2 8.59-3.43 2.03-7.58.38-11.19 1.7-6.45 2.08-12.18 5.83-17.64 9.74-2.76 2.04-7.34.3-7.93-3.11-.67-2.12.38-4.55 2.18-5.78 5.86-4.41 12.31-8.02 19.12-10.76-7.35-.73-15.92-.26-21.32 5.47-6.51 6.81-10.9 16.33-20.14 20-3.25 1.23-8.2 2.67-7.83 7.04-.37 3.64 3.18 6.37 2.5 10.01-.79 3.9-6.24 5.37-8.92 2.48-5.36-7.03-6.12-18.71 1.29-24.64 3.57-3.57 9.16-3.64 12.77-7.15 6-5.67 9.66-13.55 16.5-18.41z"/><path d="m327.61 216.78c13.64-1.72 28.11.35 39.83 7.85 8.34 5.11 15.78 12.08 25.4 14.76 9.52 2.57 19.77 2.56 29.27-.09 11.75-3.41 20.21-12.98 31.2-17.94 18.56-8.22 41.58-6.8 58.41 4.87 7.41 5.02 14.55 10.95 23.37 13.3 5.02 1.51 10.29 1.54 15.47 1.92 4.91 1.05 4.99 9.05.08 10.14-11.96.91-24.14-2.55-34.12-9.16-7.5-4.87-14.47-10.99-23.22-13.55-9.83-2.86-20.53-2.86-30.36.03-10.91 3.37-18.97 11.97-29.02 16.99-13.17 6.63-28.81 7.4-42.97 3.89-10.39-2.54-18.89-9.25-27.53-15.16-11.98-8.31-27.73-9.67-41.56-5.92-9.81 2.79-17.33 9.97-25.89 15.1-9.27 5.65-20.26 8.38-31.09 7.89-3.9-.15-5.77-5.35-3.53-8.28.95-1.51 2.75-2.2 4.48-2.13 6.46-.1 13.01-.95 18.95-3.6 7.84-3.32 14.15-9.22 21.45-13.47 6.5-3.96 13.84-6.48 21.38-7.44z"/><path d="m464.5 271.74c13.38-2.53 27.86-1.75 40.17 4.51 8.98 4.41 16.23 11.7 25.47 15.64 5.92 2.65 12.47 3.38 18.89 3.57 1.96-.07 3.94.99 4.77 2.81 1.6 3.04-.4 7.19-3.86 7.65-9.6.23-19.37-1.64-27.91-6.15-10.4-5.29-18.76-14.45-30.39-17.25-12.26-2.83-25.92-2.23-37 4.2-7.5 4.35-14.07 10.21-21.96 13.92-8.26 3.86-17.53 5.69-26.62 5.16-5.28-.91-5.18-9.51.11-10.22 9.69-.11 19.59-2.08 27.65-7.72 9.5-6.58 19.03-13.9 30.68-16.12z"/><path d="m604.57 426.78c16.17-1.8 33.85.33 47 10.67 3.17 2.71 7.35 5.21 8.07 9.68 1 5-3.54 10.13-8.63 9.65-4.25.14-6.72-3.78-9.77-6.04-8.53-6.63-19.79-8.2-30.3-7.7-8.15.49-16.75 2.28-23.07 7.78-5.36 4.81-6.97 12.69-5.4 19.52 1.44 4.88 6.22 7.65 10.64 9.48 16.54 6.03 34.57 7.18 50.74 14.36 9.03 3.92 17.12 11.21 19.89 20.91 3.17 11.2 1.27 24.23-6.5 33.17-6.82 7.93-17.07 12.05-27.19 13.69-21.34 3.34-44.61-.49-61.81-14.21-3.15-2.81-7.57-5.19-8.31-9.74-1.13-5.22 3.82-10.51 9.11-9.74 4.31.34 6.77 4.35 10.09 6.59 10.66 8.36 24.46 11.75 37.84 11.42 8.78-.21 18.23-1.37 25.38-6.93 6.08-4.77 7.43-13.68 4.88-20.66-2.44-5.47-8.07-8.43-13.38-10.49-11.9-4.3-24.5-6.06-36.65-9.49-10.18-2.52-20.88-6.77-27.1-15.68-5.02-7.05-5.57-16.17-4.44-24.48 1.34-8.59 6.05-16.58 12.93-21.91 7.41-5.84 16.72-8.74 25.98-9.85z"/><path d="m494.73 436.03c-.3-5.3 5.16-9.51 10.25-8.21 3.75.73 6.62 4.36 6.51 8.18 1.4 39.33 2.95 78.66 4.27 117.99.11 7.33-10.34 10.66-14.69 4.96-28.19-33.47-56.15-67.14-84.32-100.63 1.36 32.9 2.56 65.8 3.93 98.7.4 3.81-2.03 7.87-5.81 8.9-3.46 1.11-7.59-.24-9.55-3.33-1.88-2.82-1.36-6.37-1.6-9.56-1.48-37.69-2.96-75.38-4.46-113.06-.38-4.36 3.29-8.56 7.68-8.68 4.09-.51 9.1-.73 11.77 3.09 26.43 31.55 52.85 63.12 79.26 94.7-.76-31.02-2.24-62.03-3.24-93.05z"/><path d="m730.33 430.42c1.69-.56 3.5-.34 5.26-.25 12.15.77 24.3 1.49 36.46 2.24 6.94.42 13.87 1.6 20.44 3.94 14.68 5.16 27.14 16.41 33.45 30.67 7.53 16.95 7.97 36.5 3.33 54.29-4.25 16.01-14.53 30.8-29.36 38.6-11.18 6.16-24.25 8.35-36.89 7.34-12.71-.81-25.43-1.48-38.13-2.35-4.81-.23-8.28-5.28-7.4-9.89 2.31-39.03 4.73-78.05 7.07-117.07.12-3.38 2.5-6.57 5.77-7.52m10.48 16.82c-2.06 33.8-4.15 67.61-6.12 101.42 10.44.83 20.91 1.28 31.36 1.99 11.31.58 23.13-2.35 31.99-9.64 9.62-7.8 14.92-19.84 16.64-31.9 2-13.56.55-28.22-6.74-40.08-6.9-11.36-19.71-18.2-32.74-19.51-11.44-1.03-22.94-1.35-34.39-2.28z"/><path d="m277.47 440.56c11.97-1.73 24.45.3 35.15 5.98 17.93 9.14 30.85 26.77 35.56 46.19 6.57 26.69-3.77 57.13-26.48 73.03-13.59 9.99-31.62 13.26-47.98 9.55-14.77-3.6-27.99-12.74-36.99-24.93-9.6-12.97-14.58-29.24-13.98-45.35.6-16.07 6.77-31.92 17.33-44.05 9.54-10.92 22.92-18.62 37.39-20.42m-.92 17.19c-9.66 2-18.29 7.75-24.58 15.25-9.09 11.04-13.73 25.74-12.23 40 1.66 16.48 10.95 32.4 25.4 40.81 8.05 4.84 17.65 7.18 27.01 5.9 12.67-1.27 24.07-8.99 31.31-19.26 9.59-13.48 12.47-31.49 7.41-47.26-4.42-13.85-14.21-26.32-27.59-32.44-8.2-4.13-17.82-4.94-26.73-3z"/><path d="m894.2 443.27c5.34-2.89 12.64 1.48 12.23 7.65-3.88 39.39-7.91 78.76-11.81 118.15-.17 5.08-5.59 9.2-10.53 7.64-4.27-.91-6.91-5.52-6.15-9.7 3.97-38.93 7.79-77.88 11.74-116.81.15-2.92 1.9-5.63 4.52-6.93z"/><path d="m965.64 450.66c4.36-2.34 10.34.28 11.64 5.03 10.33 37.46 20.46 74.99 30.82 112.44 20.34-33.07 40.23-66.43 60.45-99.58 2.75-4.78 10.38-5.18 13.63-.73 2.53 2.96 2.35 7.52.07 10.57-21.83 36.09-43.7 72.14-65.52 108.23-1.66 3.56-5.69 5.77-9.58 4.91-4.66-.24-10.67-1.31-11.93-6.66-11.32-41.31-22.58-82.63-33.91-123.93-1.23-3.9.46-8.62 4.33-10.28z"/><path d="m147.42 456.66c3.01-1.05 6.49.03 8.65 2.28 2.22 2.42 2.22 5.86 2.68 8.93 5.12 37.73 10.31 75.45 15.41 113.17.59 3.73-1.85 7.47-5.3 8.79-4.63 1.83-10.5-1.13-11.23-6.19-5.41-39.24-10.74-78.49-16.07-117.74-.73-4.02 1.89-8.25 5.86-9.24z"/><path d="m1133.08 482.93c.63-4.74 5.76-7.98 10.35-6.7 25.07 4.81 50.16 9.52 75.21 14.36 3.31.61 5.63 3.49 6.36 6.66v3.25c-1.08 4.39-5.58 7.5-10.07 6.39-22.32-4.12-44.6-8.45-66.89-12.7-2.76 14.16-5.43 28.34-8.12 42.52 18.37 3.52 36.75 6.96 55.1 10.52 3.36.5 6.26 3.37 6.71 6.75.89 4.38-2.19 9.11-6.67 9.71-4.84.23-9.51-1.39-14.24-2.09-14.65-2.83-29.32-5.51-43.94-8.43-2.84 13.55-5.18 27.2-7.9 40.78 22.99 4.53 46.06 8.72 69.05 13.25 6.46 1.08 8.48 10.37 3.55 14.41-2.16 2-5.34 2.44-8.12 1.78-25.17-4.85-50.36-9.57-75.52-14.43-3-.42-5.73-2.49-6.65-5.41-1.14-2.73-.07-5.65.38-8.41 7.18-37.39 14.23-74.81 21.41-112.21z"/><path d="m5.31 479.38c4.61-1.87 10.5 1.16 11.23 6.18 6.33 36.19 12.58 72.4 18.85 108.59 22.87-3.88 45.72-7.95 68.59-11.85 4.15-.99 8.76 1.63 9.85 5.79 1.57 4.72-1.94 10.25-6.93 10.72-25.31 4.41-50.63 8.78-75.94 13.18-3.02.71-6.47.02-8.55-2.38-2.39-2.43-2.31-6.07-2.98-9.18-6.45-37.34-12.91-74.68-19.43-112.01v-2.91c.89-2.62 2.51-5.27 5.31-6.13z"/><path d="m578.45 649.48c8.85-2.81 18.51 3.05 21.5 11.52 3.37 8.15.74 18.37-6.36 23.68-6.03 4.62-15.19 4.62-21.12-.17-7.77-5.93-9.78-17.7-5.01-26.1 2.37-4.2 6.28-7.65 10.99-8.93m.84 4.7c-5.29 1.86-8.63 7.28-9.16 12.7-1.01 7.98 5.13 17.22 13.81 16.62 9.34-.69 14.47-11.9 11.45-20.12-1.84-6.62-9.29-11.83-16.1-9.2z"/><path d="m622.25 649.01c6.52.03 13.08-.23 19.59.49 7.29 2.01 10.83 11.27 7.47 17.88-1.24 2.89-3.9 4.79-6.75 5.91 3.13 4.84 6.1 9.78 9.11 14.7-1.95 0-3.88.01-5.81.03-2.98-4.67-5.8-9.42-8.81-14.05-3.28.04-6.55.02-9.81.04.13 4.58-.13 9.16-.29 13.74-1.65-.01-3.3-.01-4.94 0-.17-12.92.45-25.82.24-38.74m5.31 4.74c-.34 5.16-.36 10.34-.3 15.52 4.21.28 8.45.39 12.67.09 7.25-1.72 7.11-13.54.04-15.44-4.12-.42-8.28-.07-12.41-.17z"/><path d="m523.74 651.78c6.68-3.4 15.33-2.56 21.22 2.11-.76 1.38-1.5 2.78-2.23 4.18-4.46-3.54-10.92-4.93-16.19-2.49-3.47 1.67-4.07 7.52-.41 9.29 5.9 2.89 13.36 1.97 18.55 6.45 4.62 4.61 2.94 13.61-3.15 16.15-7.88 3.22-17.35 1.76-24.13-3.32.76-1.52 1.55-3.01 2.36-4.48 5.25 4.23 12.89 6.41 19.27 3.58 3.45-1.53 3.78-6.98.43-8.79-5.31-3.09-11.94-2.55-17.26-5.64-6.1-3.78-4.56-14.02 1.54-17.04z"/><path d="m668.51 649.46c10.59.52 21.2.57 31.81.93-.11 1.55-.24 3.1-.35 4.66-4.4-.27-8.81-.39-13.21-.29-.14 11.34-.69 22.66-.77 34-1.78-.02-3.54-.03-5.3-.04.6-11.38.47-22.79 1.08-34.16-4.42-.15-8.84-.44-13.27-.31 0-1.6 0-3.2.01-4.79z"/><path d="m472.16 652.36c8.69-.64 17.41-.89 26.13-1.18-.02 1.13-.04 3.39-.05 4.52-6.88.24-13.74.71-20.61.81.09 4.09.37 8.18.4 12.27 6.07-.24 12.14-.48 18.21-.81 0 1.42.01 2.85.02 4.29-6 .4-12.01.63-18.02.77.3 4.32.48 8.65.54 12.99 7.1-.09 14.18-.59 21.28-.81.07 1.12.2 3.35.27 4.47-8.77.67-17.58.72-26.35 1.28-.74-12.86-.97-25.75-1.82-38.6z"/><path d="m745.4 662.44c3.53-7.03 11.96-10.98 19.64-9.27 5.08.72 9.38 4.32 11.46 8.95-1.36.84-2.72 1.68-4.06 2.54-2.49-5.66-9.4-8.72-15.22-6.48-7.59 2.84-10.87 12.44-8.22 19.77 1.8 5.74 7.69 10.49 13.91 9.4 3.83-.41 6.93-3.05 9.06-6.11 1.36.86 2.73 1.75 4.11 2.63-4.08 7.46-14.26 10.1-21.84 6.86-10.3-4.66-14.35-18.58-8.84-28.29z"/><path d="m422.17 655.09c5.59-.48 11.21-.73 16.81-1.08 6.93-.49 12.68 6.29 12.3 12.97.05 4.69-2.91 9.03-7.19 10.88 3.43 4.64 6.8 9.34 10.13 14.06-2.29-.27-5.67 1.53-6.99-1.14-2.83-3.95-5.66-7.89-8.53-11.8-3.3.21-6.6.41-9.9.61.29 4.63.61 9.27.8 13.92-1.7.02-3.38.07-5.07.14-.84-12.86-1.52-25.72-2.36-38.56m5.45 4.21c.26 5.24.59 10.48.94 15.72 4.43-.53 9.01-.11 13.36-1.19 6.43-2.8 5.01-14.05-1.97-15.13-4.12-.09-8.22.44-12.33.6z"/><path d="m797.47 655.24c1.69.06 3.39.18 5.1.32-.4 6.77-1 13.52-1.43 20.29-.24 4.11.47 8.58 3.33 11.74 3.29 3.26 8.8 4.01 12.92 1.97 4.13-2.23 5.84-7.01 6.33-11.41.7-6.99.95-14.02 1.65-21.01 1.69.14 3.38.28 5.09.43-.63 7.16-.94 14.34-1.67 21.49-.66 5.38-2.81 11.19-7.68 14.1-8.26 4.9-21.35 1.58-24.05-8.33-2.5-9.7.26-19.76.41-29.59z"/><path d="m365.61 659.32c1.69-.19 3.4-.31 5.11-.37 1.11 12.83 2.43 25.65 3.31 38.5-1.65.12-3.29.26-4.92.4-.73-5.8-1.01-11.63-1.7-17.43-6.9.66-13.81 1.18-20.7 1.87.39 5.81.96 11.61 1.49 17.4-1.71.15-3.41.31-5.11.47-1.19-12.87-2.34-25.74-3.42-38.61 1.72-.18 3.45-.26 5.19-.23.3 5.45.97 10.87 1.31 16.33 6.97-.51 13.91-1.27 20.88-1.77-.42-5.53-1-11.04-1.44-16.56z"/><path d="m853.39 659.51c6.12.62 12.3.85 18.38 1.81 7.78 1.86 11.14 12.02 7.11 18.62-1.45 2.79-4.27 4.47-7.18 5.41 2.45 5.24 5.36 10.24 7.81 15.48-1.96-.22-3.9-.4-5.85-.6-2.48-4.85-5.05-9.65-7.45-14.53-3.29-.34-6.58-.64-9.86-.97-.62 4.59-.85 9.23-1.39 13.84-1.68-.19-3.36-.38-5.02-.56 1.03-12.84 2.39-25.66 3.45-38.5m4.7 5.01c-.37 5.22-.95 10.43-1.4 15.65 4.43.27 8.87 1.18 13.31.97 6.61-1.86 7.33-12.46.98-15.16-4.21-1.03-8.62-.87-12.89-1.46z"/><path d="m287.73 683.02c.1-8.52 6.6-16.81 15.23-17.93 6.22-1.28 13.24 1.28 16.52 6.87-1.26 1-2.51 2.01-3.76 3.02-3.64-6.18-12.93-7.27-18.08-2.41-7.97 7.11-5.39 22.11 4.58 26.06 6.13 2.69 13.5-1.12 15.79-7.18 1.47.59 2.94 1.19 4.42 1.79-2.14 7.21-10.21 11.3-17.39 10.89-10.21-.89-18.01-11.08-17.31-21.11z"/><path d="m915.06 665.68c1.48.13 2.97.28 4.47.45 3.64 13.44 7.69 26.76 11.28 40.21-1.83-.23-3.63-.43-5.44-.64-1.06-3.9-2.15-7.78-3.24-11.65-5.31-.62-10.62-1.23-15.93-1.76-1.75 3.61-3.74 7.09-5.53 10.67-1.89-.2-3.77-.41-5.64-.6 6.7-12.22 13.41-24.43 20.03-36.68m-7.24 22.66c4.5.53 9.01 1.03 13.54 1.49-1.52-5.95-3.16-11.85-4.73-17.77-3.02 5.38-5.8 10.89-8.81 16.28z"/><path d="m250.4 671.43c1.43-.17 2.86-.34 4.29-.49 6.8 12.16 13.72 24.25 20.49 36.44-1.79.22-3.57.46-5.34.73-2.21-3.43-4.03-7.08-6.03-10.62-5.28.6-10.55 1.3-15.82 1.95-1.03 3.91-2.07 7.83-3.04 11.76-1.82.21-3.64.43-5.46.65 3.57-13.5 7.19-26.97 10.91-40.42m2.86 5.9c-1.57 5.99-3.16 11.97-4.72 17.97 4.51-.61 9.03-1.15 13.54-1.72-2.94-5.42-5.9-10.82-8.82-16.25z"/><path d="m950.8 680.73c4.17-7.66 14.1-11.05 22.18-7.91 4.24 1.57 8.11 5.08 9.07 9.64-1.43.58-2.84 1.17-4.24 1.79-1.47-3.98-4.99-7.16-9.25-7.72-6.76-1.47-13.11 4-14.77 10.29-2.24 6.74.59 15.19 7.13 18.39 5.27 2.51 12.02.58 15.21-4.32 1.35.94 2.69 1.91 4.01 2.94-3.58 5.59-10.66 7.67-16.98 7.08-.72-.61-1.67-.77-2.53-.94-11.77-3.37-16.1-19.31-9.83-29.24z"/><path d="m191.77 679.57c8.42-1.32 16.86-2.6 25.32-3.62.98 1.14.59 3.01.96 4.46-6.86.92-13.7 1.97-20.55 2.94.63 4.01 1.15 8.04 1.81 12.05 5.94-.89 11.89-1.75 17.84-2.56.2 1.42.4 2.86.61 4.3-5.97.88-11.97 1.54-17.89 2.69.71 4.23 1.22 8.5 1.9 12.74 7.03-1 14.04-2.1 21.07-3.04.16 1.53.33 3.07.49 4.62-8.66 1.14-17.3 2.47-25.95 3.72-2.01-12.75-3.71-25.54-5.61-38.3z"/><path d="m1015.19 678.6c1.44.21 2.91.43 4.38.66 3.2 13.54 6.65 27.02 9.8 40.58-1.82-.25-3.62-.5-5.41-.74-.94-3.95-1.85-7.89-2.81-11.82-5.29-.73-10.54-1.77-15.85-2.28-1.95 3.5-3.98 6.95-6.07 10.36-1.81-.27-3.61-.53-5.39-.78 6.98-12.08 14.31-23.94 21.35-35.98m-8.04 22.41c4.46.75 8.94 1.35 13.42 2.06-1.39-5.98-2.66-11.97-4.1-17.93-3.12 5.28-6.28 10.54-9.32 15.87z"/><path d="m141.41 687.55c6.89-1.16 13.77-2.48 20.71-3.31 8.6.47 12.03 13.01 5.22 18.11 5.27 1 8.99 6.28 8.14 11.58-.51 4.72-4.87 8.07-9.33 8.79-6.16 1-12.33 2.03-18.5 3-2.11-12.72-4.14-25.45-6.24-38.17m5.78 3.56c.76 4.1 1.36 8.24 2.02 12.37 4.36-.84 8.84-1.13 13.13-2.28 5.58-2.04 4.37-11.46-1.46-12.17-4.61.34-9.11 1.47-13.69 2.08m2.81 16.51c.52 4.3 1.34 8.55 2.04 12.83 4.87-1.03 9.96-1.2 14.72-2.67 5.43-2.52 4.03-11.49-1.83-12.28-5.03.19-9.93 1.58-14.93 2.12z"/><path d="m1060.38 687.48c5.63-1.84 12.35-.73 16.7 3.44 7.27 6.39 8.57 18.32 3.13 26.27-3.63 5.72-10.53 9.45-17.36 8.51-7.71-.62-13.98-7.17-15.39-14.59-2.37-9.64 3.4-20.57 12.92-23.63m3.03 4.05c-5.55 1.25-9.59 6.21-10.84 11.6-1.75 7.08 1.81 15.92 9.38 17.69 8.43 2.27 16-5.95 16.41-13.93 1.18-8.26-6.21-17.37-14.95-15.36z"/><path d="m446.37 795.51c1.37-4.16 2.63-8.36 4.15-12.45 1.29 4.17 2.58 8.35 4.08 12.46 4.24-.04 8.48-.04 12.72.01-3.45 2.49-6.89 4.99-10.34 7.48 1.26 4.01 2.53 8.01 3.88 11.99h-.45c-3.36-2.35-6.62-4.84-9.95-7.22-3.38 2.36-6.63 4.89-10.02 7.22h-.47c1.43-3.94 2.57-7.97 3.97-11.92-3.42-2.56-6.92-5.03-10.33-7.59 4.25 0 8.51.01 12.76.02z"/><path d="m554.35 795.51c1.44-4.14 2.73-8.31 4.11-12.46 1.45 4.12 2.72 8.3 4.09 12.45 4.25-.01 8.51-.02 12.78.03-3.46 2.51-6.92 5.01-10.35 7.55 1.38 3.95 2.56 7.96 3.92 11.92h-.42c-3.36-2.34-6.65-4.8-9.95-7.21-3.39 2.32-6.64 4.83-10 7.21h-.55c1.49-3.94 2.66-7.99 3.95-11.98-3.44-2.51-6.89-5-10.31-7.54 4.24.01 8.49.02 12.73.03z"/><path d="m666.54 783.05c1.37 4.15 2.67 8.32 4.1 12.46 4.25-.01 8.5-.01 12.75-.03-3.43 2.53-6.89 5.02-10.33 7.54 1.3 4 2.47 8.04 3.95 11.98h-.56c-3.33-2.38-6.59-4.85-9.93-7.21-3.35 2.37-6.63 4.84-9.99 7.21h-.38c1.2-4 2.53-7.96 3.87-11.92-3.44-2.54-6.9-5.04-10.35-7.55 4.26-.05 8.52-.04 12.78-.03 1.34-4.16 2.64-8.33 4.09-12.45z"/><path d="m770.43 795.51c1.46-4.12 2.73-8.31 4.09-12.47 1.46 4.12 2.74 8.31 4.11 12.47 4.25-.02 8.51-.02 12.77-.02-3.43 2.56-6.92 5.03-10.34 7.59 1.39 3.94 2.54 7.98 3.96 11.92h-.48c-3.37-2.34-6.62-4.83-9.94-7.22-3.38 2.34-6.63 4.85-9.99 7.22h-.46c1.32-3.99 2.61-7.98 3.87-11.99-3.44-2.52-6.91-4.99-10.35-7.48 4.25-.05 8.5-.04 12.76-.02z"/></g><path d="m960.63 709.97c.86.17 1.81.33 2.53.94.98.83 2.29.98 3.48 1.47 2.29 1.45 1.65 5.38-.8 6.32-3.28 1.32-6.77-.04-9.89-1.14.28-.52.85-1.56 1.14-2.08 2.48.23 4.94 2.35 7.53 1.16 2.48-3.76-4.25-3.65-6.4-3.08.82-1.19 1.62-2.39 2.41-3.59z" fill="#222021"/></svg>